<svg width="523" height="312" viewBox="0 0 523 312" fill="none" xmlns="http://www.w3.org/2000/svg">
<path d="M72.615 7.16008C110.623 7.16008 121.839 26.7873 121.839 55.1378C121.839 85.669 111.87 112.773 72.615 112.773H48.3146V7.47162C60.4648 7.16008 68.565 7.16008 72.615 7.16008ZM0.0253906 228.979H60.7764V228.356C50.4954 209.04 48.3146 198.448 48.3146 172.59V119.004H75.4189L131.497 228.979H186.328V226.798C170.128 218.698 163.586 211.844 150.189 185.674L113.116 113.085C144.27 103.115 158.29 81.3074 158.29 55.4493C158.29 22.7372 135.858 0.929199 79.469 0.929199H0.0253906V1.5523C9.99478 20.868 12.4871 31.4605 12.4871 57.3186V172.59C12.4871 198.136 9.99478 209.04 0.0253906 228.356V228.979Z" fill="#F1F0FF"/>
<path d="M305.489 187.544L303.62 186.298C293.027 199.694 278.696 207.171 259.692 207.171C226.98 207.171 205.172 186.298 205.172 142.37V136.451H305.177C307.047 109.035 282.123 75.6996 245.673 75.6996C211.403 75.6996 173.706 107.166 173.706 157.324C173.706 200.629 202.056 233.652 243.803 233.652C276.204 233.652 297.389 213.09 305.489 187.544ZM244.426 81.3074C263.742 81.3074 273.4 95.6384 273.4 126.481V129.908L205.795 131.466C208.287 103.115 220.749 81.3074 244.426 81.3074Z" fill="#F1F0FF"/>
<path d="M361.148 228.356C356.475 209.975 355.852 199.694 360.525 174.77L371.741 114.019H392.926C406.633 114.019 414.422 133.335 419.718 144.239H422.834L434.984 76.6343H431.868C422.522 87.8498 407.568 107.789 393.86 107.789H372.675L391.368 5.60236L433.115 7.47162C444.642 8.0947 458.038 31.772 470.188 55.1378L473.304 54.5147L469.565 0.929199H348.375V1.5523C353.048 19.9334 353.359 30.2143 348.686 55.1378L327.19 174.77C322.828 199.382 318.778 209.975 307.874 228.356V228.979H361.148V228.356Z" fill="#F1F0FF"/>
<path d="M522.326 23.9834C522.326 13.7025 514.225 5.29081 503.945 5.29081C493.975 5.29081 485.564 13.7025 485.564 23.9834C485.564 33.9528 493.975 42.3645 503.945 42.3645C514.225 42.3645 522.326 33.9528 522.326 23.9834ZM445.997 228.979H488.367V228.356C485.563 214.648 486.81 202.186 493.352 170.72L513.914 74.1419L464.69 89.7191V90.3422C474.036 97.8192 475.906 113.396 471.232 136.139L463.755 170.72C458.148 197.202 455.032 213.713 445.997 228.356V228.979Z" fill="#F1F0FF"/>
<path d="M167.523 310.952H178.54C188.611 310.952 194.852 304.994 194.852 294.924C194.852 284.853 188.611 278.801 178.54 278.801H167.523V310.952ZM178.54 306.649H172.819V283.103H178.54C185.395 283.103 189.462 287.453 189.462 294.924C189.462 302.299 185.395 306.649 178.54 306.649Z" fill="#F1F0FF"/>
<path d="M259.348 310.952H264.88L252.493 278.801H246.299L233.911 310.952H239.207L241.949 303.718H256.606L259.348 310.952ZM248.332 287.028L249.278 283.907L250.223 287.028L254.999 299.557H243.557L248.332 287.028Z" fill="#F1F0FF"/>
<path d="M319.415 311.566C328.919 311.566 334.829 305.231 334.829 294.924C334.829 284.616 328.919 278.186 319.415 278.186C309.817 278.186 303.954 284.616 303.954 294.924C303.954 305.231 309.817 311.566 319.415 311.566ZM319.415 307.122C313.127 307.122 309.344 302.488 309.344 294.924C309.344 287.311 313.127 282.631 319.415 282.631C325.703 282.631 329.439 287.311 329.439 294.924C329.439 302.488 325.703 307.122 319.415 307.122Z" fill="#F1F0FF"/>
</svg>
