<svg width="523" height="312" viewBox="0 0 523 312" fill="none" xmlns="http://www.w3.org/2000/svg">
<path d="M72.615 6.79728C110.623 6.79728 121.839 26.4245 121.839 54.775C121.839 85.3062 111.87 112.411 72.615 112.411H48.3146V7.10883C60.4648 6.79729 68.565 6.79728 72.615 6.79728ZM0.0253906 228.616H60.7764V227.993C50.4954 208.677 48.3146 198.085 48.3146 172.227V118.641H75.4189L131.497 228.616H186.328V226.435C170.128 218.335 163.586 211.481 150.189 185.312L113.116 112.722C144.27 102.753 158.29 80.9446 158.29 55.0865C158.29 22.3744 135.858 0.566406 79.469 0.566406H0.0253906V1.1895C9.99478 20.5052 12.4871 31.0977 12.4871 56.9558V172.227C12.4871 197.773 9.99478 208.677 0.0253906 227.993V228.616Z" fill="#172027"/>
<path d="M305.489 187.181L303.62 185.935C293.027 199.331 278.696 206.808 259.692 206.808C226.98 206.808 205.172 185.935 205.172 142.007V136.088H305.177C307.047 108.672 282.123 75.3369 245.673 75.3369C211.403 75.3369 173.706 106.803 173.706 156.961C173.706 200.266 202.056 233.289 243.803 233.289C276.204 233.289 297.389 212.728 305.489 187.181ZM244.426 80.9446C263.742 80.9446 273.4 95.2756 273.4 126.118V129.545L205.795 131.103C208.287 102.753 220.749 80.9446 244.426 80.9446Z" fill="#172027"/>
<path d="M361.148 227.993C356.475 209.612 355.852 199.331 360.525 174.408L371.741 113.657H392.926C406.633 113.657 414.422 132.972 419.718 143.876H422.834L434.984 76.2715H431.868C422.522 87.4871 407.568 107.426 393.86 107.426H372.675L391.368 5.23957L433.115 7.10883C444.642 7.7319 458.038 31.4092 470.188 54.775L473.304 54.1519L469.565 0.566406H348.375V1.1895C353.048 19.5706 353.359 29.8515 348.686 54.775L327.19 174.408C322.828 199.02 318.778 209.612 307.874 227.993V228.616H361.148V227.993Z" fill="#172027"/>
<path d="M522.326 23.6206C522.326 13.3397 514.225 4.92801 503.945 4.92801C493.975 4.92801 485.564 13.3397 485.564 23.6206C485.564 33.59 493.975 42.0017 503.945 42.0017C514.225 42.0017 522.326 33.59 522.326 23.6206ZM445.997 228.616H488.367V227.993C485.563 214.285 486.81 201.824 493.352 170.358L513.914 73.7791L464.69 89.3563V89.9794C474.036 97.4564 475.906 113.034 471.232 135.776L463.755 170.358C458.148 196.839 455.032 213.351 445.997 227.993V228.616Z" fill="#172027"/>
<path d="M167.523 310.589H178.54C188.611 310.589 194.852 304.632 194.852 294.561C194.852 284.49 188.611 278.438 178.54 278.438H167.523V310.589ZM178.54 306.286H172.819V282.741H178.54C185.395 282.741 189.462 287.091 189.462 294.561C189.462 301.937 185.395 306.286 178.54 306.286Z" fill="#172027"/>
<path d="M259.348 310.589H264.88L252.493 278.438H246.299L233.911 310.589H239.207L241.949 303.355H256.606L259.348 310.589ZM248.332 286.665L249.278 283.544L250.223 286.665L254.999 299.194H243.557L248.332 286.665Z" fill="#172027"/>
<path d="M319.415 311.204C328.919 311.204 334.829 304.868 334.829 294.561C334.829 284.254 328.919 277.824 319.415 277.824C309.817 277.824 303.954 284.254 303.954 294.561C303.954 304.868 309.817 311.204 319.415 311.204ZM319.415 306.759C313.127 306.759 309.344 302.126 309.344 294.561C309.344 286.949 313.127 282.268 319.415 282.268C325.703 282.268 329.439 286.949 329.439 294.561C329.439 302.126 325.703 306.759 319.415 306.759Z" fill="#172027"/>
</svg>
